<svg xmlns="http://www.w3.org/2000/svg" viewBox="0 0 410.02 164.72"><defs><style>.cls-1{fill:none;}.cls-2{fill:#3c1053;}.cls-3{fill:#00b140;}.cls-4{fill:#0069ff;}.cls-5{fill:#9914bc;}.cls-6{fill:#16d3c5;}.cls-7{fill:#ff3836;}.cls-8{fill:#fdda24;}</style></defs><title>zupa-colour</title><g id="Layer_2" data-name="Layer 2"><g id="Layer_1-2" data-name="Layer 1"><g id="zupa-colour"><path class="cls-1" d="M410,133.42H0V0H410ZM410,0H81.2V31.3H410Zm0,133.42H0v31.3H410Z"/><path class="cls-2" d="M172.22,33.37V86.23c0,8.16,1.38,13.64,4.21,16.75s7.12,4.68,12.77,4.68a51.17,51.17,0,0,0,5.17-.2,22,22,0,0,0,2.7-.42l1-.24V33.38a63.31,63.31,0,0,1,7.27-1.12,82.13,82.13,0,0,1,15.76,0,58.91,58.91,0,0,1,7.17,1.11V127c-2,.67-4.29,1.34-6.88,2-3,.78-6.26,1.52-9.64,2.22s-6.92,1.25-10.44,1.63a107,107,0,0,1-29.3-1,38.11,38.11,0,0,1-15.48-6.09A31.22,31.22,0,0,1,146,112.54c-2.63-5.81-4-13.75-4-23.6V33.38a63.31,63.31,0,0,1,7.27-1.12,82.13,82.13,0,0,1,15.76,0A58.31,58.31,0,0,1,172.22,33.37Zm137.72,66a38.52,38.52,0,0,1-13.6,6.47,62.12,62.12,0,0,1-15.67,2c-2.15,0-4-.06-5.52-.19a14.11,14.11,0,0,1-2.6-.33l-1.68-.55v24.54a73.49,73.49,0,0,1-7.83,1.05c-2.63.19-5,.29-7,.29s-4.48-.1-7-.29a73.64,73.64,0,0,1-7.64-1.05V33.84C247,33,252.77,32.39,258.57,32c12.52-.9,24.13-1.19,35.23,1a42.08,42.08,0,0,1,14.86,5.83A31.13,31.13,0,0,1,319.18,50.3c2.66,4.9,4,11.38,4,19.26,0,7.13-1.23,13.2-3.65,18A32.75,32.75,0,0,1,309.94,99.35ZM293.77,69.56c0-5-1.62-9-4.8-11.72a17.16,17.16,0,0,0-11.6-4.09h-2.22A27.35,27.35,0,0,0,272,54l-1.12.14v31l1,.21a19,19,0,0,0,2.59.32c1,.07,1.83.1,2.51.1a19,19,0,0,0,11.92-3.66C292.14,79.59,293.77,75.38,293.77,69.56ZM410,127.32c-4.67,1.32-10.32,2.65-16.81,4a109.58,109.58,0,0,1-21.84,2.11,86.07,86.07,0,0,1-18.24-1.81,39.91,39.91,0,0,1-14-5.72,27,27,0,0,1-9-10.28c-2.16-4.25-3.25-9.56-3.25-15.8,0-6,1.29-11.09,3.86-15a29.51,29.51,0,0,1,10-9.47,43.18,43.18,0,0,1,13.75-5,80.88,80.88,0,0,1,14.88-1.43H382.6l-.08-1.35A11.71,11.71,0,0,0,380.33,61a13,13,0,0,0-4.94-4A23.66,23.66,0,0,0,369,55.21a50,50,0,0,0-7-.49A67,67,0,0,0,351,55.8,80.7,80.7,0,0,0,339,58.89c-.94-1.8-1.76-3.47-2.47-5a28.18,28.18,0,0,1-1.85-5.29,40,40,0,0,1-.94-5.64c-.17-1.72-.26-3.67-.28-5.83a121,121,0,0,1,17.44-4.32A100.9,100.9,0,0,1,367.3,31.3a62.86,62.86,0,0,1,17.85,2.37,35.32,35.32,0,0,1,13.38,7.19A32,32,0,0,1,407,53.26a49.87,49.87,0,0,1,3,18.24ZM382.53,86.89H370.2A22.46,22.46,0,0,0,358.1,90a10.34,10.34,0,0,0-5.26,9.22,10.88,10.88,0,0,0,2,6.89,12.51,12.51,0,0,0,4.85,3.77,20.78,20.78,0,0,0,6,1.65,43,43,0,0,0,5.69.4,45,45,0,0,0,5.18-.4,40.22,40.22,0,0,0,5-.8l1-.24ZM91.2,107.27l41.57-68.89-1.49-4.75h-64a58.78,58.78,0,0,1-7,24H88.73L47.44,126.77l2.41,4.5h79.57c.4-2.24.69-4.23.85-5.92.19-1.95.29-3.9.29-5.79a79.26,79.26,0,0,0-1.16-12.29Z"/><path class="cls-3" d="M1.14,26.74h0a37,37,0,0,1,0-18.24h0a37,37,0,0,1,18.24,0h0a37,37,0,0,1,0,18.24h0a37,37,0,0,1-18.24,0Z"/><path class="cls-4" d="M67,14.19h0A27.22,27.22,0,0,1,67,.83h0a27.22,27.22,0,0,1,13.36,0h0a27.22,27.22,0,0,1,0,13.36h0a27.22,27.22,0,0,1-13.36,0Z"/><path class="cls-5" d="M15.76,44.57A23.42,23.42,0,0,1,5,44.57,23.37,23.37,0,0,1,5,33.79a23.69,23.69,0,0,1,10.79,0A23.65,23.65,0,0,1,15.76,44.57Z"/><path class="cls-6" d="M58.2,42.35l-.16.42a51.28,51.28,0,0,1-12.86,1.62,44.53,44.53,0,0,0-1.34-9.93h0a44.25,44.25,0,0,0-13.4-1.29A54,54,0,0,1,32,16.11a54.11,54.11,0,0,1,26.58,0h0A52.65,52.65,0,0,1,58.2,42.35Z"/><path class="cls-7" d="M41.11,53.44A17.6,17.6,0,0,0,40.66,57,44.39,44.39,0,0,1,22,56.31h0a44.4,44.4,0,0,1,0-21.85h0a44.6,44.6,0,0,1,21.85,0h0a44.53,44.53,0,0,1,1.34,9.93,45.88,45.88,0,0,1-.64,8.6A17.24,17.24,0,0,0,41.11,53.44Z"/><path class="cls-8" d="M49.22,61.55a17.64,17.64,0,0,1-8.11,0,18.21,18.21,0,0,1,0-8.11A17.24,17.24,0,0,1,44.54,53a17.54,17.54,0,0,1,4.68.45A17.64,17.64,0,0,1,49.22,61.55Z"/></g></g></g></svg>